<?xml version="1.0" encoding="UTF-8" standalone="no"?><!DOCTYPE svg PUBLIC "-//W3C//DTD SVG 1.1//EN" "http://www.w3.org/Graphics/SVG/1.1/DTD/svg11.dtd"><svg width="100%" height="100%" viewBox="0 0 595 529" version="1.1" xmlns="http://www.w3.org/2000/svg" xmlns:xlink="http://www.w3.org/1999/xlink" xml:space="preserve" style="fill-rule:evenodd;clip-rule:evenodd;stroke-linejoin:round;stroke-miterlimit:1.41421;"><rect id="Artboard1" x="0" y="0" width="594.24" height="528.24" style="fill:none;"/><clipPath id="_clip1"><rect x="0" y="0" width="594.24" height="528.24"/></clipPath><g clip-path="url(#_clip1)"><path d="M594.24,0c0,0 -14.817,81.524 -16.1,122.769c-2.466,79.242 -3.448,328.32 1.304,352.679c1.864,9.555 9.767,21.472 10.272,30.078c0.722,12.29 -9.876,22.784 -16.632,22.714c-7.189,-0.075 -18.291,-7.196 -18.099,-22.714c0.119,-9.606 8.892,-22.873 10.273,-29.278c5.907,-27.403 7.043,-272.078 -1.827,-352.381c-1.56,-14.121 -32.853,-32.604 -39.384,-26.109c-6.902,6.864 -4.345,65.641 -0.02,87.812c1.864,9.555 9.767,18.941 10.273,27.546c0.722,12.29 -9.877,22.784 -16.632,22.714c-7.189,-0.075 -18.292,-7.196 -18.1,-22.714c0.119,-9.606 8.892,-20.657 10.273,-27.063c6.053,-28.082 7.518,-84.269 -0.915,-93.734c-25.344,-28.449 -304.635,-77.958 -508.926,-92.319l594.24,0Z" style="fill:#fff;"/></g></svg>