<?xml version="1.0" encoding="UTF-8" standalone="no"?><!DOCTYPE svg PUBLIC "-//W3C//DTD SVG 1.1//EN" "http://www.w3.org/Graphics/SVG/1.1/DTD/svg11.dtd"><svg width="100%" height="100%" viewBox="0 0 595 211" version="1.1" xmlns="http://www.w3.org/2000/svg" xmlns:xlink="http://www.w3.org/1999/xlink" xml:space="preserve" style="fill-rule:evenodd;clip-rule:evenodd;stroke-linejoin:round;stroke-miterlimit:1.41421;"><rect id="Artboard1" x="0" y="0" width="594.24" height="210.48" style="fill:none;"/><path d="M49.208,146.514c-9.692,-16.954 -15.613,-31.932 -13.167,-51.306c0.552,-4.376 4.633,-14.327 7.576,-18.764c10.115,-15.246 31.791,-29.724 63.568,-35.653c9.661,-1.802 27.379,-5.388 37.371,-5.018c58.658,2.17 195.388,24.928 243.364,30.83c15.508,1.908 51.534,2.649 46.766,3.179c-4.767,0.529 -50.259,0.781 -75.37,0c-52.003,-1.619 -196.64,-6.762 -240.186,-2.499c-4.119,0.403 -12.012,-5.619 -17.852,-2.651c-7.75,3.939 -8.973,15.31 -3.488,15.592c3.751,0.194 7.838,-6.864 13.053,-6.649c12.711,0.523 25.401,4.301 44.539,6.051c2.318,0.212 0.619,-3.669 3.069,-3.47c5.888,0.477 9.425,2.855 15.946,3.461c1.099,0.102 1.754,-1.613 2.873,-1.513c1.92,0.171 3.87,3.071 5.848,3.249c0.644,0.058 3.107,-2.609 3.756,-2.553c1.004,0.086 1.104,1.99 2.116,2.078c1.778,0.155 5.389,1.668 7.197,1.813c0.846,0.068 -0.122,-3.045 0.726,-2.981c0.669,0.05 1.339,0.554 2.011,0.605c0.58,0.045 3.432,-3.543 4.015,-3.499c24.955,1.909 49.754,7.783 72.208,8.04c2.627,0.03 9.326,-4.476 11.921,-4.438c4.378,0.066 11.443,2.704 15.732,2.685c0.679,-0.003 5.442,-1.822 6.118,-1.825c3.27,-0.014 11.605,1.784 14.773,1.763c0.631,-0.004 1.714,-2.732 2.341,-2.736c1.161,-0.008 2.314,-0.015 3.459,-0.023c2.833,-0.018 7.43,0.872 10.153,0.854c0.893,-0.006 3.143,1.35 4.023,1.343c1.489,-0.01 5.227,-1.383 6.674,-1.394c2.983,-0.023 5.423,1.315 8.22,1.288c1.39,-0.013 6.843,-1.843 8.184,-1.856c10.649,-0.106 15.624,-0.207 22.537,-0.293c13.222,-0.163 -19.656,2.639 -43.987,6.389c-1.442,0.222 -0.482,1.492 -1.682,1.781c-0.861,0.207 -1.657,2.679 -2.385,2.875c-0.664,0.18 -1.724,-2.819 -2.267,-2.641c-0.749,0.246 -1.377,0.491 -1.872,0.733c-1.951,0.959 -10.494,2.868 -12.28,3.123c-24.788,3.531 -48.264,5.409 -62.657,14.075c-2.513,1.513 -6.56,0.24 -14.638,1.364c-2.36,0.329 -1.371,1.628 -3.158,2.108c-1.201,0.323 4.432,2.461 3.301,2.776c-6.073,1.694 -10.806,3.214 -10.752,3.863c0.331,3.962 -0.276,4.624 -3.405,5.977c-2.578,1.115 -3.195,0.77 -5.401,1.619c-4.98,1.917 -4.099,1.802 -10.985,4.368c-4.637,1.728 -9.501,2.528 -14.317,3.992c-14.012,4.26 -27.786,7.125 -36.901,12.526c-11.975,7.094 -23.721,25.362 -38.14,28.15c-36.889,7.135 -71.278,-14.07 -78.548,-26.788Zm431.79,-64.927c4.919,3.632 44.269,19.977 57.209,16.799c12.94,-3.178 21.642,-25.502 20.432,-35.869c-1.211,-10.367 -15.362,-23.686 -27.697,-26.334c-12.334,-2.649 -34.28,8.324 -46.312,10.443c-8.528,1.502 -25.577,-0.379 -25.88,2.27c-0.303,2.648 14.963,12.162 24.064,13.621c11.805,1.892 36.777,-3.859 46.766,-2.27c5.822,0.926 11.654,9.308 13.167,11.805c0.895,1.476 -2.648,3.027 -4.086,3.178c-1.438,0.151 -3.254,-2.346 -4.54,-2.27c-1.287,0.076 -1.797,2.527 -3.179,2.724c-4.237,0.605 -14.877,0.037 -22.248,0.908c-8.324,0.984 -32.615,1.362 -27.696,4.995Z" style="fill:#b71e33;"/></svg>